<?xml version="1.0" standalone="no"?>
<!DOCTYPE svg PUBLIC "-//W3C//DTD SVG 20010904//EN"
 "http://www.w3.org/TR/2001/REC-SVG-20010904/DTD/svg10.dtd">
<svg version="1.0" xmlns="http://www.w3.org/2000/svg"
 width="512.000000pt" height="512.000000pt" viewBox="0 0 512.000000 512.000000"
 preserveAspectRatio="xMidYMid meet">

<g transform="translate(0.000000,512.000000) scale(0.100000,-0.100000)"
fill="#000000" stroke="none">
<path d="M2170 5114 c-547 -17 -1212 -68 -1368 -105 -341 -79 -612 -350 -691
-691 -27 -116 -66 -551 -93 -1028 -15 -277 -15 -1183 0 -1460 27 -477 66 -912
93 -1028 40 -173 122 -318 253 -447 130 -129 287 -214 456 -249 118 -24 581
-64 1010 -88 282 -15 1174 -15 1460 0 446 25 884 63 1010 88 292 59 557 283
669 564 41 105 57 192 80 445 90 970 90 1932 1 2890 -12 121 -28 254 -36 295
-71 345 -349 629 -696 709 -116 27 -568 68 -1013 91 -199 11 -954 20 -1135 14z
m1180 -1220 l95 -175 183 -101 183 -101 -108 -60 c-59 -33 -141 -78 -182 -101
l-75 -41 -95 -177 c-53 -98 -98 -177 -101 -178 -3 0 -48 80 -101 178 l-97 177
-73 41 c-41 23 -123 68 -182 101 l-108 60 180 99 181 99 97 178 c53 97 99 177
102 177 3 0 49 -79 101 -176z m-1068 -612 l183 -333 352 -192 c194 -106 352
-195 353 -198 0 -3 -159 -92 -353 -198 l-353 -193 -193 -354 c-106 -195 -195
-354 -196 -354 -2 0 -90 159 -197 354 l-193 354 -352 193 c-194 106 -353 195
-353 198 1 3 159 92 352 198 l352 191 195 356 c181 332 196 355 208 334 7 -13
94 -173 195 -356z m1069 -1300 l95 -177 75 -41 c41 -23 123 -68 182 -101 l109
-60 -182 -100 -182 -99 -97 -177 c-53 -97 -99 -177 -102 -177 -3 0 -49 80
-102 177 l-97 178 -181 99 c-172 94 -180 100 -158 112 13 7 95 53 183 101
l158 88 97 177 c53 98 98 178 101 178 3 -1 48 -80 101 -178z"/>
</g>
</svg>
